<svg xmlns="http://www.w3.org/2000/svg" width="22" height="24" viewBox="0 0 22 24"><g><g><g/><g><g><g><path fill="#f5f5f5" d="M7.411 11.416c-1.913-2.157-1.595-5.855-1.56-6.207.124-2.67 1.396-3.937 2.44-4.528C9.33.089 10.413 0 10.965 0h.084c1.004.02 1.904.258 2.674.7 1.034.592 2.286 1.86 2.41 4.509.035.352.353 4.05-1.56 6.207-.87.98-2.048 1.491-3.504 1.516h-.159c-1.456-.025-2.634-.537-3.499-1.516zm1-.89c.62.706 1.46 1.054 2.554 1.064h.049c1.099-.01 1.934-.358 2.56-1.064 1.58-1.779 1.233-5.158 1.228-5.193-.005-.01-.005-.025-.005-.04-.154-3.37-2.436-3.916-3.778-3.946h-.06c-1.083 0-3.612.383-3.776 3.946 0 .01-.005.025-.005.04-.005.03-.343 3.424 1.232 5.193z"/></g><g><path fill="#f5f5f5" d="M21.203 19.06v-.014c0-.04-.005-.08-.005-.125-.03-.984-.094-3.285-2.251-4.02l-.05-.015c-2.241-.572-4.105-1.864-4.125-1.879a.67.67 0 1 0-.77 1.098c.084.06 2.062 1.437 4.537 2.073 1.158.412 1.287 1.65 1.322 2.783 0 .045 0 .085.005.124.005.448-.025 1.138-.104 1.536-.805.457-3.961 2.038-8.762 2.038-4.781 0-7.957-1.586-8.767-2.043-.08-.398-.115-1.088-.105-1.536 0-.04.005-.08.005-.124.035-1.133.164-2.37 1.322-2.783 2.475-.636 4.453-2.018 4.538-2.073a.67.67 0 1 0-.77-1.098c-.02.015-1.874 1.307-4.126 1.879a.626.626 0 0 0-.05.015c-2.156.74-2.22 3.041-2.25 4.02 0 .045 0 .085-.006.125v.014c-.005.259-.01 1.586.254 2.252.05.13.139.238.258.313.15.1 3.723 2.376 9.702 2.376 5.978 0 9.552-2.282 9.701-2.376a.665.665 0 0 0 .258-.313c.249-.661.244-1.988.239-2.247z"/></g></g></g></g></g></svg>