<svg width="24" height="24" viewBox="0 0 24 24" fill="none" xmlns="http://www.w3.org/2000/svg">
<g clip-path="url(#clip0)">
<path d="M23.7448 9.75297L12.3684 1.42342C12.149 1.26283 11.851 1.26283 11.6317 1.42342L0.255261 9.75297C-0.0226135 9.95645 -0.0829885 10.3466 0.120496 10.6245C0.32398 10.9024 0.714215 10.9627 0.992043 10.7593L12 2.69941L23.008 10.7592C23.119 10.8406 23.248 10.8797 23.3759 10.8797C23.5679 10.8797 23.7574 10.7913 23.8795 10.6245C24.083 10.3466 24.0227 9.95645 23.7448 9.75297Z" fill="#4E4E4E"/>
<path d="M20.7303 10.9004C20.3859 10.9004 20.1067 11.1796 20.1067 11.524V21.4497H15.1182V16.0316C15.1182 14.3122 13.7193 12.9135 12 12.9135C10.2808 12.9135 8.88191 14.3123 8.88191 16.0316V21.4497H3.89334V11.524C3.89334 11.1796 3.6141 10.9004 3.26976 10.9004C2.92541 10.9004 2.64618 11.1796 2.64618 11.524V22.0734C2.64618 22.4178 2.92541 22.697 3.26976 22.697H9.50549C9.83343 22.697 10.1018 22.4436 10.1266 22.1219C10.1281 22.1074 10.1291 22.0914 10.1291 22.0734V16.0317C10.1291 15 10.9684 14.1607 12 14.1607C13.0317 14.1607 13.871 15 13.871 16.0317V22.0734C13.871 22.0913 13.8719 22.107 13.8734 22.1214C13.898 22.4433 14.1665 22.697 14.4946 22.697H20.7303C21.0747 22.697 21.3539 22.4178 21.3539 22.0734V11.524C21.3539 11.1796 21.0747 10.9004 20.7303 10.9004Z" fill="#4E4E4E"/>
</g>
<defs>
<clipPath id="clip0">
<rect width="24" height="24" fill="white"/>
</clipPath>
</defs>
</svg>
