<svg xmlns="http://www.w3.org/2000/svg" width="18" height="24" viewBox="0 0 18 24"><g><g><g/><g><path fill="#e90b68" d="M17.281 8.927V24H0V8.927h2.2V6C2.2 2.928 5 0 8.78 0c3.719 0 6.3 2.928 6.3 6v2.927zm-13.675 0h10.07V6c0-2.297-1.676-4.594-4.895-4.594C5.5 1.406 3.606 3.703 3.606 6zm12.269 1.407H1.406v12.26h14.469z"/></g><g><path fill="#e90b68" d="M8.1 17.888A2.808 2.808 0 0 1 6 15.174a2.807 2.807 0 0 1 2.804-2.804 2.807 2.807 0 0 1 2.803 2.804 2.809 2.809 0 0 1-2.1 2.714v2.537H8.1zm-.694-2.714a1.399 1.399 0 0 0 2.795 0c0-.771-.627-1.398-1.397-1.398s-1.398.627-1.398 1.398z"/></g></g></g></svg>