<svg xmlns="http://www.w3.org/2000/svg" width="24" height="24" viewBox="0 0 24 24"><g><g><path fill="#f5f5f5" d="M23.466 20.856c.356.355.534.788.534 1.298 0 .5-.183.932-.548 1.298a1.774 1.774 0 0 1-1.298.548c-.52 0-.952-.183-1.298-.548l-4.947-4.933c-1.721 1.192-3.64 1.789-5.755 1.789a9.979 9.979 0 0 1-3.945-.8c-1.254-.535-2.336-1.255-3.245-2.164a10.148 10.148 0 0 1-2.163-3.245A9.978 9.978 0 0 1 0 10.154c0-1.375.267-2.69.8-3.945.534-1.254 1.255-2.336 2.164-3.245A10.15 10.15 0 0 1 6.209.801 9.976 9.976 0 0 1 10.154 0c1.375 0 2.69.267 3.945.8a10.15 10.15 0 0 1 3.245 2.164c.909.909 1.63 1.99 2.163 3.245.534 1.255.801 2.57.801 3.945 0 2.115-.596 4.034-1.789 5.755zm-6.85-10.702c0-1.779-.632-3.3-1.897-4.565-1.265-1.264-2.786-1.897-4.565-1.897-1.779 0-3.3.632-4.565 1.897-1.264 1.264-1.897 2.786-1.897 4.565 0 1.779.633 3.3 1.897 4.565 1.265 1.264 2.786 1.896 4.565 1.896 1.779 0 3.3-.632 4.565-1.896 1.264-1.265 1.897-2.786 1.897-4.565z"/></g></g></svg>