<svg width="24" height="24" viewBox="0 0 24 24" fill="none" xmlns="http://www.w3.org/2000/svg">
<g clip-path="url(#clip0)">
<path d="M21.3916 15.675C21.3684 15.6361 21.3439 15.599 21.3196 15.5662C21.0772 15.2273 20.7167 15.0034 20.3056 14.9357C19.8963 14.8681 19.4815 14.9645 19.144 15.207L14.6719 18.4002H9.99995C9.77955 18.4002 9.59997 18.221 9.59997 18.0002C9.59997 17.7794 9.77955 17.6002 9.99995 17.6002H12.6C13.372 17.6002 14 16.9722 14 16.2002C14 16.1958 13.9996 16.159 13.9992 16.155C13.9744 15.3834 13.3236 14.7818 12.568 14.8002H7.36441C6.9032 14.8042 6.454 14.9694 6.1 15.2646L4.144 16.8926C4.05278 16.969 4 17.0814 4 17.2002V22.0002C4 22.2214 4.1792 22.4002 4.39998 22.4002H14.3244C14.974 22.3994 15.6068 22.1706 16.1068 21.7566L20.956 17.7498C21.6148 17.2805 21.806 16.3694 21.3916 15.675ZM20.4696 17.1157L15.5972 21.1402C15.2395 21.4362 14.7872 21.5993 14.3239 21.6001H4.79997V17.3877L6.61234 15.8789C6.82516 15.7017 7.09436 15.6025 7.36797 15.6001L12.5808 15.5997C12.9123 15.5993 13.1891 15.8501 13.2 16.2001C13.2 16.5309 12.9308 16.8001 12.6 16.8001H9.99995C9.33836 16.8001 8.79995 17.3385 8.79995 18.0001C8.79995 18.6617 9.33836 19.2001 9.99995 19.2001H14.8C14.8832 19.2001 14.9643 19.1741 15.0332 19.1257L19.6099 15.8573C19.7748 15.7389 19.9751 15.693 20.176 15.7249C20.3763 15.7581 20.5516 15.8669 20.6719 16.0349C20.6839 16.0513 20.6947 16.0681 20.7051 16.0853C20.9076 16.4242 20.8135 16.8693 20.4696 17.1157Z" fill="#F5F5F5"/>
<path d="M4.38802 16.3999H0V17.1999H3.98798V23.1999H0V23.9999H4.38802C4.6088 23.9999 4.788 23.8211 4.788 23.5999V16.7999C4.788 16.5787 4.6088 16.3999 4.38802 16.3999Z" fill="#F5F5F5"/>
<path d="M2.00005 20C1.33846 20 0.800049 20.5384 0.800049 21.2C0.800049 21.8616 1.33846 22.4 2.00005 22.4C2.66164 22.4 3.20005 21.8616 3.20005 21.2C3.20005 20.5384 2.66164 20 2.00005 20ZM2.00005 21.6C1.77964 21.6 1.60006 21.4208 1.60006 21.2C1.60006 20.9792 1.77964 20.8 2.00005 20.8C2.22046 20.8 2.40003 20.9792 2.40003 21.2C2.40003 21.4208 2.22046 21.6 2.00005 21.6Z" fill="#F5F5F5"/>
<path d="M23.6 12.3999H0.399984C0.179203 12.3999 0 12.5787 0 12.7999C0 14.3435 1.25602 15.5999 2.79998 15.5999H21.2C22.7436 15.5999 24 14.3435 24 12.7999C24 12.5787 23.8212 12.3999 23.6 12.3999ZM21.2 14.7999H2.79998C1.83398 14.7999 1.026 14.1115 0.840375 13.1999H23.1596C22.974 14.1115 22.166 14.7999 21.2 14.7999Z" fill="#F5F5F5"/>
<path d="M12 2C6.26559 2 1.59998 6.66561 1.59998 12.4V12.8C1.59998 13.0212 1.77918 13.2 1.99996 13.2H22C22.2212 13.2 22.4 13.0212 22.4 12.8V12.4C22.4 6.66556 17.7348 2 12 2ZM2.39999 12.4C2.39999 7.10675 6.70677 2.79997 12 2.79997C17.2932 2.79997 21.6 7.10675 21.6 12.4H2.39999Z" fill="#F5F5F5"/>
<path d="M5.42078 6.56274C5.14117 6.87713 4.882 7.21356 4.65039 7.56315L5.31719 8.00513C5.52841 7.68671 5.76437 7.37992 6.01877 7.09393L5.42078 6.56274Z" fill="#F5F5F5"/>
<path d="M12 3.6001C9.75362 3.60132 7.61481 4.45008 5.97803 5.98889L6.52604 6.57169C8.01404 5.17247 9.95842 4.40128 12.0004 4.40011L12 3.6001Z" fill="#F5F5F5"/>
<path d="M13.2 0H10.8V0.800016H13.2V0Z" fill="#F5F5F5"/>
<path d="M12.4 0.399902H11.6V2.39992H12.4V0.399902Z" fill="#F5F5F5"/>
</g>
<defs>
<clipPath id="clip0">
<rect width="24" height="24" fill="white"/>
</clipPath>
</defs>
</svg>
