<svg width="24" height="24" viewBox="0 0 24 24" fill="none" xmlns="http://www.w3.org/2000/svg">
<g clip-path="url(#clip0)">
<path d="M4.80029 4.00018H5.20038C5.4212 4.00018 5.60028 3.82111 5.60028 3.60028C5.60028 3.37927 5.4212 3.2002 5.20038 3.2002H4.80029C4.57947 3.2002 4.40039 3.37927 4.40039 3.60028C4.40039 3.82111 4.57947 4.00018 4.80029 4.00018Z" fill="#F5F5F5"/>
<path d="M6.80023 4.00017H12.0002C12.221 4.00017 12.4001 3.8211 12.4001 3.60027C12.4001 3.37927 12.221 3.2002 12.0002 3.2002H6.80023C6.5794 3.2002 6.40015 3.37927 6.40015 3.60027C6.40015 3.8211 6.5794 4.00017 6.80023 4.00017V4.00017Z" fill="#F5F5F5"/>
<path d="M20.3693 12.8002H19.5001C19.4973 12.8002 19.4944 12.8002 19.4917 12.8002C19.3097 12.8005 19.1288 12.8275 18.9544 12.8802C18.9409 12.8833 18.9275 12.8871 18.9145 12.8917C18.7027 12.9651 18.5058 13.0765 18.3337 13.2202C18.4205 12.3001 18.8761 10.9642 20.6049 9.9434C20.7889 9.82859 20.8479 9.58781 20.7377 9.40086C20.6273 9.21392 20.3881 9.14891 20.1984 9.25457C19.1245 9.83793 18.2868 10.7767 17.8289 11.9097C17.8077 11.8405 17.785 11.773 17.7601 11.7098C17.5597 11.1828 17.2296 10.715 16.8 10.3499V3.60035C16.8 2.93752 16.2628 2.40029 15.6002 2.40029H13.9266C13.7576 1.92258 13.3068 1.60252 12.8002 1.60032H10.6573C10.3211 0.641775 9.41606 0 8.40021 0C7.38435 0 6.47928 0.641775 6.1431 1.60032H4.00025C3.4936 1.60252 3.0428 1.92258 2.87398 2.40029H1.20042C0.53759 2.40029 0.000366211 2.93752 0.000366211 3.60035V22.8C0.000366211 23.4628 0.53759 24 1.20042 24H15.6002C15.7871 24.0002 15.9715 23.9557 16.1378 23.87C16.5031 23.9557 16.8771 23.9995 17.2525 24H18.7477C21.6437 24 24 21.4884 24 18.4V16.668C24 14.5362 22.3713 12.8002 20.3693 12.8002V12.8002ZM17.0121 11.9962C17.1161 12.31 17.191 12.6326 17.2357 12.9602C17.1957 12.943 17.16 12.9201 17.1197 12.9069C16.9229 12.8362 16.7153 12.8002 16.5062 12.8002C16.5029 12.8002 16.5005 12.8002 16.4974 12.8002H15.6309C15.5213 12.8002 15.4134 12.8077 15.3061 12.8177C15.2962 12.815 15.2889 12.8086 15.2785 12.8066C13.9546 12.5414 13.9729 10.997 14.0229 10.4442C14.2782 10.4147 14.5349 10.4004 14.7918 10.4013H14.8002C15.8014 10.4103 16.6882 11.0503 17.0121 11.9978V11.9962ZM12.9481 21.6001H2.40029V4.80022H2.87398C3.0428 5.27794 3.4936 5.59819 4.00025 5.6002H12.8002C13.3068 5.59819 13.7576 5.27794 13.9266 4.80022H14.4001V9.60612C13.3671 9.64293 13.2986 9.93058 13.2618 10.095C13.121 10.9179 13.1926 12.375 14.1449 13.1442C12.8143 13.8113 11.9813 15.1798 12.0002 16.668V18.4C11.9969 19.5363 12.3265 20.6489 12.9481 21.6001V21.6001ZM16.0001 3.60035V9.85972C15.7441 9.75224 15.4751 9.67863 15.2001 9.64055V4.80022C15.2001 4.3584 14.8419 4.00025 14.4001 4.00025H14.0002V3.20027H15.6002C15.821 3.20027 16.0001 3.37935 16.0001 3.60035V3.60035ZM4.00025 2.40029H6.44027C6.45382 2.39828 6.46701 2.39553 6.48019 2.39187C6.50528 2.38931 6.52981 2.38436 6.5538 2.37704C6.57925 2.36953 6.60379 2.35928 6.62704 2.34665C6.69351 2.31094 6.74807 2.25638 6.78378 2.18991C6.79678 2.16666 6.80721 2.14212 6.81472 2.11667C6.82076 2.10458 6.82607 2.09232 6.83065 2.0795C6.98281 1.33482 7.63813 0.799976 8.39819 0.799976C9.15844 0.799976 9.81358 1.33482 9.96574 2.0795C9.9705 2.09396 9.97617 2.10806 9.98258 2.12198C9.98881 2.14139 9.99631 2.16061 10.0051 2.17911C10.0185 2.20492 10.0349 2.22928 10.0538 2.25143C10.0653 2.26663 10.0778 2.28073 10.0913 2.29391C10.1151 2.31442 10.1411 2.332 10.169 2.34628C10.2252 2.38455 10.2924 2.40359 10.3601 2.40029H12.8002C13.0212 2.40029 13.2002 2.57937 13.2002 2.80037V4.40033C13.2002 4.62115 13.0212 4.80022 12.8002 4.80022H4.00025C3.77942 4.80022 3.60035 4.62115 3.60035 4.40033V2.80037C3.60035 2.57937 3.77942 2.40029 4.00025 2.40029ZM1.20042 23.2C0.979417 23.2 0.800342 23.021 0.800342 22.8V3.60035C0.800342 3.37935 0.979417 3.20027 1.20042 3.20027H2.80037V4.00025H2.40029C1.95847 4.00025 1.60032 4.3584 1.60032 4.80022V21.6001C1.60032 22.0419 1.95847 22.4001 2.40029 22.4001H13.5833C13.8763 22.7044 14.204 22.9728 14.5602 23.2H1.20042ZM23.2 18.4C23.2 21.0464 21.2024 23.2 18.7477 23.2H17.2525C14.7978 23.2 12.8002 21.0473 12.8002 18.4V16.668C12.8002 14.9773 14.0702 13.6001 15.6309 13.6001H16.5129C16.6274 13.6012 16.7407 13.6216 16.8486 13.6602C17.3137 13.8464 17.6136 14.3029 17.6 14.8037V15.2001C17.6 15.4211 17.7791 15.6002 18.0001 15.6002C18.2209 15.6002 18.4 15.4211 18.4 15.2001V14.8026C18.3852 14.3023 18.6827 13.8455 19.1465 13.6573L19.1657 13.6518C19.2692 13.6185 19.377 13.6009 19.4856 13.5994H20.3689C21.93 13.6001 23.2 14.9773 23.2 16.668V18.4Z" fill="#F5F5F5"/>
<path d="M15.0737 14.4207C15.0133 14.4402 13.6001 14.9333 13.6001 16.8001C13.6001 17.0211 13.7792 17.2002 14.0002 17.2002C14.221 17.2002 14.4001 17.0211 14.4001 16.8001C14.4001 15.5306 15.2849 15.1946 15.3301 15.1785C15.5394 15.1078 15.6518 14.8806 15.5809 14.6713C15.5101 14.462 15.283 14.3498 15.0737 14.4207V14.4207Z" fill="#F5F5F5"/>
<path d="M5.20026 6.80029H4.00018C3.55835 6.80029 3.2002 7.15845 3.2002 7.60028V8.80035C3.2002 9.24219 3.55835 9.60034 4.00018 9.60034H5.20026C5.64209 9.60034 6.00024 9.24219 6.00024 8.80035V7.60028C6.00024 7.15845 5.64209 6.80029 5.20026 6.80029ZM4.00018 8.80035V7.60028H5.20026V8.80035H4.00018Z" fill="#F5F5F5"/>
<path d="M5.20026 10.4001H4.00018C3.55835 10.4001 3.2002 10.7583 3.2002 11.2001V12.4C3.2002 12.8419 3.55835 13.2002 4.00018 13.2002H5.20026C5.64209 13.2002 6.00024 12.8419 6.00024 12.4V11.2001C6.00024 10.7583 5.64209 10.4001 5.20026 10.4001ZM4.00018 12.4V11.2001H5.20026V12.4H4.00018Z" fill="#F5F5F5"/>
<path d="M5.20026 14.0002H4.00018C3.55835 14.0002 3.2002 14.3584 3.2002 14.8002V16.0001C3.2002 16.442 3.55835 16.8001 4.00018 16.8001H5.20026C5.64209 16.8001 6.00024 16.442 6.00024 16.0001V14.8002C6.00024 14.3584 5.64209 14.0002 5.20026 14.0002V14.0002ZM4.00018 16.0001V14.8002H5.20026V16.0001H4.00018Z" fill="#F5F5F5"/>
<path d="M5.20026 17.6001H4.00018C3.55835 17.6001 3.2002 17.9583 3.2002 18.4001V19.6002C3.2002 20.042 3.55835 20.4001 4.00018 20.4001H5.20026C5.64209 20.4001 6.00024 20.042 6.00024 19.6002V18.4001C6.00024 17.9583 5.64209 17.6001 5.20026 17.6001V17.6001ZM4.00018 19.6002V18.4001H5.20026V19.6002H4.00018Z" fill="#F5F5F5"/>
<path d="M7.20025 8.80022H12.8001C13.0211 8.80022 13.2002 8.62115 13.2002 8.40014C13.2002 8.17932 13.0211 8.00024 12.8001 8.00024H7.20025C6.97925 8.00024 6.80017 8.17932 6.80017 8.40014C6.80017 8.62115 6.97925 8.80022 7.20025 8.80022Z" fill="#F5F5F5"/>
<path d="M11.6 11.6001H7.20025C6.97925 11.6001 6.80017 11.7792 6.80017 12.0002C6.80017 12.221 6.97925 12.4001 7.20025 12.4001H11.6C11.821 12.4001 12.0001 12.221 12.0001 12.0002C12.0001 11.7792 11.821 11.6001 11.6 11.6001V11.6001Z" fill="#F5F5F5"/>
<path d="M10.8001 15.2002H7.20025C6.97925 15.2002 6.80017 15.3793 6.80017 15.6003C6.80017 15.8211 6.97925 16.0002 7.20025 16.0002H10.8001C11.0211 16.0002 11.2001 15.8211 11.2001 15.6003C11.2001 15.3793 11.0211 15.2002 10.8001 15.2002V15.2002Z" fill="#F5F5F5"/>
<path d="M10.8001 18.8H7.20025C6.97925 18.8 6.80017 18.9791 6.80017 19.2001C6.80017 19.421 6.97925 19.6 7.20025 19.6H10.8001C11.0211 19.6 11.2001 19.421 11.2001 19.2001C11.2001 18.9791 11.0211 18.8 10.8001 18.8V18.8Z" fill="#F5F5F5"/>
</g>
<defs>
<clipPath id="clip0">
<rect width="24" height="24" fill="white"/>
</clipPath>
</defs>
</svg>
