<svg width="24" height="24" viewBox="0 0 24 24" fill="none" xmlns="http://www.w3.org/2000/svg">
<path d="M4.56171 23.999C4.7558 23.999 4.91327 23.8417 4.91327 23.6475V14.711C4.91327 14.1853 4.48553 13.7576 3.95966 13.7576H0.953613C0.427734 13.7576 0 14.1853 0 14.711V23.6475C0 23.8417 0.157471 23.999 0.351562 23.999H4.56171ZM0.703125 14.711C0.703125 14.5729 0.815369 14.4607 0.953613 14.4607H3.95966C4.09772 14.4607 4.20996 14.5729 4.20996 14.711V23.2959H0.703125V14.711Z" fill="#F5F5F5"/>
<path d="M7.31573 11.3999C6.79004 11.3999 6.3623 11.8276 6.3623 12.3535V23.6475C6.3623 23.8417 6.51959 23.999 6.71387 23.999H10.9238C11.1181 23.999 11.2754 23.8417 11.2754 23.6475V12.3535C11.2754 11.8276 10.8477 11.3999 10.322 11.3999H7.31573ZM10.5723 12.3535V23.2959H7.06525V12.3535C7.06525 12.2155 7.17767 12.103 7.31573 12.103H10.3218C10.46 12.103 10.5723 12.2155 10.5723 12.3535Z" fill="#F5F5F5"/>
<path d="M17.6379 23.6475V9.99609C17.6379 9.47021 17.2101 9.04248 16.6843 9.04248H13.6782C13.1523 9.04248 12.7246 9.47021 12.7246 9.99609V23.6475C12.7246 23.8418 12.8821 23.9991 13.0762 23.9991H17.2863C17.4804 23.9991 17.6379 23.8418 17.6379 23.6475V23.6475ZM16.9348 23.296H13.4277V9.99609C13.4277 9.85803 13.54 9.74561 13.6782 9.74561H16.6843C16.8223 9.74561 16.9346 9.85803 16.9346 9.99609V23.296H16.9348Z" fill="#F5F5F5"/>
<path d="M19.4385 23.9991H23.6484C23.8425 23.9991 24 23.8419 24 23.6476V7.63849C24 7.11279 23.5723 6.68506 23.0464 6.68506H20.0403C19.5146 6.68506 19.0869 7.11279 19.0869 7.63849V23.6476C19.0869 23.8419 19.2442 23.9991 19.4385 23.9991ZM19.79 7.63849C19.79 7.50043 19.9023 7.38818 20.0403 7.38818H23.0464C23.1844 7.38818 23.2969 7.50043 23.2969 7.63849V23.296H19.79V7.63849Z" fill="#F5F5F5"/>
<path d="M20.7483 4.99196C20.9078 5.22157 21.1788 5.33931 21.4554 5.29958C21.7321 5.25966 21.9588 5.07015 22.047 4.80501L23.2486 1.1938C23.3222 0.972245 23.2881 0.735307 23.1548 0.543595C23.0217 0.351884 22.8115 0.23726 22.5782 0.22902L18.7749 0.0942546C18.4944 0.0840007 18.2388 0.230668 18.1048 0.476029C17.9709 0.721391 17.9869 1.01637 18.1463 1.24599L18.5435 1.81783C16.4883 3.00362 11.6439 5.39772 5.04332 6.09865C4.85014 6.11916 4.71025 6.29237 4.73076 6.48537C4.74998 6.66591 4.90251 6.79994 5.07994 6.79976C5.09239 6.79976 5.10484 6.79921 5.11747 6.79793C12.2341 6.04225 17.357 3.35188 19.2292 2.23018C19.4012 2.12727 19.4517 1.8929 19.3373 1.7281C19.3373 1.7281 18.7348 0.860917 18.7239 0.84517C18.7088 0.823564 18.7246 0.796464 18.7499 0.79683C18.7499 0.79683 22.5376 0.931047 22.5533 0.931596C22.5737 0.932328 22.5876 0.952653 22.5813 0.971879C22.5813 0.971879 21.3818 4.57704 21.3798 4.5829C21.3719 4.60689 21.3397 4.6111 21.3256 4.59078L20.7816 3.80763C20.6754 3.65456 20.4685 3.61116 20.3097 3.70802C19.4896 4.209 18.118 4.97402 16.2395 5.774C16.0608 5.85018 15.9776 6.05653 16.0538 6.23525C16.13 6.41396 16.3363 6.49709 16.5151 6.42091C18.2304 5.69032 19.5346 4.98647 20.3919 4.47908L20.7483 4.99196Z" fill="#F5F5F5"/>
<path d="M3.69727 6.91977C3.89099 6.90713 4.03766 6.73959 4.02484 6.54586C4.01221 6.35214 3.84448 6.20565 3.65094 6.21829C2.88794 6.26846 2.11981 6.29409 1.3678 6.29409C1.17352 6.29409 1.01624 6.45138 1.01624 6.64566V9.1716C1.01624 9.36569 1.17352 9.52316 1.3678 9.52316C7.1889 9.52316 12.046 8.14657 15.0954 6.99191C15.277 6.92324 15.3686 6.72018 15.2997 6.53872C15.2311 6.35708 15.028 6.26553 14.8466 6.33438C11.9134 7.44491 7.27808 8.76455 1.71936 8.8182V6.99539C2.3736 6.98861 3.03735 6.96334 3.69727 6.91977V6.91977Z" fill="#F5F5F5"/>
</svg>
