<svg width="24" height="24" viewBox="0 0 24 24" fill="none" xmlns="http://www.w3.org/2000/svg">
<path d="M23.4329 11.2296C23.0736 10.8981 22.5849 10.6934 22.092 10.6678C21.5322 10.6389 21.0078 10.8384 20.6172 11.2292L17.9487 13.8698C17.8959 13.7784 17.8357 13.6921 17.7681 13.6121C17.4398 13.2223 16.9597 13.0077 16.4164 13.0077H12.6807C11.9763 13.0077 11.2891 12.9163 10.6384 12.7363C8.94171 12.267 7.32086 12.6098 5.95068 13.7282C5.39349 14.1831 4.98699 14.6778 4.72991 15.0385L4.06011 14.3885C3.97204 14.303 3.85265 14.2545 3.72979 14.2545C3.72869 14.2545 3.72778 14.2545 3.72668 14.2545C3.59942 14.2554 3.47637 14.3083 3.38811 14.3999L0.131949 17.7802C0.0447907 17.8706 -0.0026336 17.9922 0.000112985 18.1178C0.00285957 18.2436 0.0554109 18.363 0.146414 18.4496L5.65368 23.6936C5.74505 23.7805 5.86224 23.8239 5.97924 23.8239C6.10211 23.8239 6.22497 23.7761 6.31744 23.6813L9.54321 20.3718C9.63128 20.2814 9.68017 20.1578 9.67779 20.0314C9.67541 19.9069 9.62322 19.7868 9.53387 19.7L9.25299 19.4276L9.89587 19.3552C10.2848 19.31 10.6803 19.2871 11.0718 19.2871H16.7556C17.6791 19.2871 18.4636 19.0852 19.0872 18.6867C19.0923 18.6834 19.0975 18.6799 19.1026 18.6765C19.326 18.5212 19.5287 18.3372 19.7048 18.1297L23.535 13.6237C24.1906 12.8526 24.1495 11.8904 23.4329 11.2296V11.2296ZM5.96697 22.6881L1.14141 18.0933L3.74096 15.3945L8.53832 20.0499L5.96697 22.6881ZM22.8156 13.0121L18.9854 17.5183C18.8638 17.6613 18.7245 17.7884 18.5709 17.8961C18.1027 18.1925 17.492 18.343 16.7556 18.343H11.0716C10.644 18.343 10.2117 18.3681 9.78857 18.4174L8.37536 18.5759L5.41637 15.7045C5.622 15.3996 6.00012 14.9069 6.54778 14.4597C7.68633 13.5303 8.97796 13.2565 10.3866 13.6464C11.1194 13.8491 11.8912 13.952 12.6807 13.952H16.4164C17.0873 13.952 17.2664 14.5332 17.2664 14.8765C17.2664 15.1273 17.1858 15.3661 17.0454 15.5316C16.8931 15.7109 16.6765 15.8017 16.4016 15.8017H13.1497C12.8889 15.8017 12.6776 16.0132 12.6776 16.2739C12.6776 16.5347 12.8889 16.746 13.1497 16.746H16.4016C16.9506 16.746 17.4347 16.5318 17.765 16.1428C18.0399 15.8195 18.1966 15.3943 18.2098 14.9398L21.2832 11.8986C21.7225 11.4594 22.4088 11.5696 22.7927 11.9237C22.9912 12.1068 23.2582 12.4915 22.8156 13.0121V13.0121Z" fill="#F5F5F5"/>
<path d="M11.6774 16.1481C11.6179 15.8942 11.3639 15.7369 11.11 15.7962C10.8562 15.8557 10.6985 16.1097 10.7582 16.3636L10.7626 16.3829C10.8137 16.6004 11.0076 16.7473 11.2219 16.7473C11.2576 16.7473 11.2938 16.7432 11.3301 16.7348C11.584 16.6753 11.7415 16.4211 11.682 16.1674L11.6774 16.1481Z" fill="#F5F5F5"/>
<path d="M3.19122 10.1484H7.79157C8.04206 10.1484 8.27387 10.0671 8.46247 9.92981C8.65106 10.0671 8.88288 10.1484 9.13336 10.1484H13.7339C13.9844 10.1484 14.2162 10.0671 14.4048 9.92981C14.5934 10.0671 14.8252 10.1484 15.0757 10.1484H19.676C20.3063 10.1484 20.819 9.63556 20.819 9.00531V6.86005C20.819 5.89655 20.2797 5.05957 19.4726 4.64667C19.8637 4.17499 20.0992 3.57001 20.0992 2.91083C20.0992 1.40918 18.8775 0.1875 17.3759 0.1875C15.8742 0.1875 14.6525 1.40918 14.6525 2.91083C14.6525 3.57001 14.888 4.17517 15.2791 4.64667C14.9303 4.82538 14.6317 5.08338 14.4048 5.3963C14.1779 5.08319 13.8793 4.8252 13.5303 4.64667C13.9214 4.17517 14.1569 3.57001 14.1569 2.91083C14.1569 1.40918 12.9352 0.1875 11.4335 0.1875C9.93189 0.1875 8.71021 1.40918 8.71021 2.91083C8.71021 3.57001 8.94586 4.17517 9.33698 4.64685C8.98798 4.82538 8.68933 5.08338 8.46247 5.39649C8.2356 5.08338 7.93695 4.82538 7.58795 4.64667C7.97907 4.17517 8.21454 3.57001 8.21454 2.91101C8.21454 1.40918 6.99286 0.1875 5.49121 0.1875C3.98975 0.1875 2.76807 1.40918 2.76807 2.91101C2.76807 3.57001 3.00354 4.17517 3.39465 4.64685C2.58752 5.05976 2.0481 5.89691 2.0481 6.86023V9.00531C2.0481 9.63556 2.56097 10.1484 3.19122 10.1484V10.1484ZM17.376 1.13178C18.3569 1.13178 19.1551 1.92975 19.1551 2.91083C19.1551 3.89173 18.3569 4.68988 17.376 4.68988C16.395 4.68988 15.597 3.89191 15.597 2.91083C15.5968 1.92975 16.395 1.13178 17.376 1.13178ZM16.1494 5.34119C16.5184 5.52814 16.9349 5.63416 17.3759 5.63416C17.817 5.63416 18.2335 5.52814 18.6023 5.34119C19.336 5.469 19.8749 6.10126 19.8749 6.86005V9.00531C19.8749 9.11499 19.7857 9.20417 19.676 9.20417H15.0757C14.9662 9.20417 14.877 9.11499 14.877 9.00531V6.86005C14.8768 6.10144 15.4159 5.469 16.1494 5.34119ZM11.4337 1.13178C12.4146 1.13178 13.2128 1.92975 13.2128 2.91083C13.2128 3.89173 12.4146 4.68988 11.4337 4.68988C10.4526 4.68988 9.65467 3.89191 9.65467 2.91083C9.65467 1.92975 10.4526 1.13178 11.4337 1.13178ZM10.2073 5.34119C10.5761 5.52814 10.9926 5.63416 11.4337 5.63416C11.8748 5.63416 12.2912 5.52814 12.6602 5.34119C13.3937 5.469 13.9327 6.10126 13.9327 6.86005V9.00531C13.9327 9.11499 13.8436 9.20417 13.7339 9.20417H9.13355C9.02387 9.20417 8.93469 9.11499 8.93469 9.00531V6.86005C8.93469 6.10144 9.47376 5.469 10.2073 5.34119ZM5.4914 1.13178C6.47229 1.13178 7.27045 1.92975 7.27045 2.91083C7.27045 3.89173 6.47229 4.68988 5.4914 4.68988C4.5105 4.68988 3.71234 3.89173 3.71234 2.91083C3.71234 1.92975 4.5105 1.13178 5.4914 1.13178ZM2.99237 6.86005C2.99237 6.10144 3.53143 5.469 4.26495 5.34119C4.63391 5.52814 5.05029 5.63416 5.4914 5.63416C5.9325 5.63416 6.34888 5.52814 6.71784 5.34119C7.45154 5.469 7.99042 6.10126 7.99042 6.86005V9.00531C7.99042 9.11499 7.90125 9.20417 7.79157 9.20417H3.19122C3.08154 9.20417 2.99237 9.11499 2.99237 9.00531V6.86005Z" fill="#F5F5F5"/>
</svg>
