<svg width="30" height="30" viewBox="0 0 30 30" fill="none" xmlns="http://www.w3.org/2000/svg">
<g clip-path="url(#clip0)">
<path d="M12.7897 26.0165L12.7898 17.2102L3.98355 17.2103C2.7629 17.2102 1.77337 16.2207 1.77326 15.0001C1.77337 13.7794 2.7629 12.7899 3.98355 12.7898L12.7898 12.7899L12.7897 3.9836C12.7898 2.76295 13.7794 1.77342 15 1.77331C16.2206 1.77342 17.2102 2.76295 17.2103 3.9836L17.2102 12.7899L26.0165 12.7898C27.2371 12.7899 28.2266 13.7794 28.2267 15.0001C28.2266 16.2207 27.2371 17.2102 26.0165 17.2103L17.2102 17.2102L17.2103 26.0165C17.2102 27.2372 16.2206 28.2267 15 28.2268C13.7794 28.2267 12.7898 27.2372 12.7897 26.0165V26.0165Z" fill="#E90B68"/>
</g>
<defs>
<clipPath id="clip0">
<rect width="20" height="20" fill="white" transform="translate(15 0.85791) rotate(45)"/>
</clipPath>
</defs>
</svg>
