<svg width="36" height="36" viewBox="0 0 36 36" fill="none" xmlns="http://www.w3.org/2000/svg">
<path d="M17.9131 18.9319C17.9379 18.9319 17.9628 18.9319 17.9926 18.9319C18.0026 18.9319 18.0125 18.9319 18.0224 18.9319C18.0373 18.9319 18.0572 18.9319 18.0721 18.9319C19.5283 18.907 20.7062 18.3951 21.576 17.416C23.4894 15.2591 23.1713 11.5614 23.1365 11.2085C23.0123 8.55954 21.7599 7.29219 20.7261 6.70077C19.9558 6.25844 19.0562 6.01988 18.0523 6H18.0175C18.0125 6 18.0026 6 17.9976 6H17.9678C17.4161 6 16.3326 6.08946 15.2939 6.68089C14.2502 7.27231 12.9779 8.53966 12.8537 11.2085C12.8189 11.5614 12.5008 15.2591 14.4142 17.416C15.279 18.3951 16.4569 18.907 17.9131 18.9319ZM14.1806 11.3328C14.1806 11.3179 14.1856 11.303 14.1856 11.293C14.3496 7.72955 16.8793 7.34686 17.9628 7.34686H17.9827C17.9926 7.34686 18.0075 7.34686 18.0224 7.34686C19.3643 7.37668 21.6455 7.92338 21.7996 11.293C21.7996 11.3079 21.7996 11.3228 21.8046 11.3328C21.8096 11.3676 22.1574 14.7472 20.577 16.5264C19.9508 17.2321 19.1158 17.58 18.0175 17.59C18.0075 17.59 18.0026 17.59 17.9926 17.59C17.9827 17.59 17.9777 17.59 17.9678 17.59C16.8744 17.58 16.0344 17.2321 15.4132 16.5264C13.8377 14.7571 14.1757 11.3626 14.1806 11.3328Z" fill="#F5F5F5"/>
<path d="M28.2058 25.0648C28.2058 25.0599 28.2058 25.0549 28.2058 25.0499C28.2058 25.0102 28.2008 24.9704 28.2008 24.9257C28.171 23.9416 28.1064 21.6405 25.9494 20.905C25.9345 20.9 25.9146 20.895 25.8997 20.89C23.6582 20.3185 21.7945 19.0263 21.7746 19.0114C21.4714 18.7977 21.054 18.8722 20.8403 19.1754C20.6265 19.4786 20.7011 19.8961 21.0043 20.1098C21.0888 20.1694 23.0668 21.5461 25.5419 22.1822C26.6999 22.5947 26.8291 23.8323 26.8639 24.9654C26.8639 25.0102 26.8639 25.0499 26.8688 25.0897C26.8738 25.537 26.844 26.2278 26.7645 26.6254C25.9593 27.0826 22.8034 28.6631 18.0024 28.6631C13.2213 28.6631 10.0455 27.0777 9.23537 26.6204C9.15585 26.2228 9.12106 25.532 9.131 25.0847C9.131 25.0449 9.13597 25.0052 9.13597 24.9605C9.17076 23.8273 9.29998 22.5898 10.458 22.1773C12.933 21.5411 14.9111 20.1595 14.9956 20.1048C15.2987 19.8911 15.3733 19.4736 15.1596 19.1704C14.9459 18.8673 14.5284 18.7927 14.2252 19.0064C14.2053 19.0213 12.3515 20.3135 10.1001 20.8851C10.0803 20.89 10.0654 20.895 10.0504 20.9C7.89348 21.6405 7.82887 23.9416 7.79905 24.9207C7.79905 24.9654 7.79905 25.0052 7.79408 25.0449C7.79408 25.0499 7.79408 25.0549 7.79408 25.0599C7.78911 25.3183 7.78414 26.6453 8.04755 27.3112C8.09725 27.4405 8.18671 27.5498 8.30598 27.6244C8.45508 27.7238 12.0285 30 18.0074 30C23.9862 30 27.5597 27.7188 27.7088 27.6244C27.8231 27.5498 27.9175 27.4405 27.9672 27.3112C28.2157 26.6502 28.2107 25.3233 28.2058 25.0648Z" fill="#F5F5F5"/>
</svg>
