<svg xmlns="http://www.w3.org/2000/svg" width="24" height="24" viewBox="0 0 24 24"><g><g><path fill="#e90b68" d="M20.484 3.516A11.915 11.915 0 0 0 12 0C8.793 0 5.784 1.25 3.516 3.516A11.915 11.915 0 0 0 0 12c0 3.207 1.25 6.216 3.516 8.484A11.915 11.915 0 0 0 12 24c1.952 0 3.885-.477 5.602-1.387a.885.885 0 0 0-.827-1.564A10.243 10.243 0 0 1 12 22.23C6.359 22.23 1.77 17.641 1.77 12 1.77 6.359 6.36 1.77 12 1.77S22.23 6.36 22.23 12c0 1.898-.532 2.98-.98 3.55-.476.616-1.116.965-1.755.965-.89 0-1.79-.708-1.79-2.292v-6.89a.888.888 0 0 0-.885-.885.888.888 0 0 0-.886.885v.388A6.073 6.073 0 0 0 5.557 12a6.08 6.08 0 0 0 6.074 6.074c.595 0 1.18-.084 1.741-.256a.888.888 0 0 0 .595-1.102.888.888 0 0 0-1.101-.595 4.362 4.362 0 0 1-1.235.182A4.308 4.308 0 0 1 7.328 12a4.308 4.308 0 0 1 4.303-4.303A4.305 4.305 0 0 1 15.934 12v2.223c0 2.665 1.79 4.062 3.561 4.062 1.185 0 2.336-.6 3.152-1.647C23.534 15.502 24 13.898 24 12c0-3.207-1.25-6.216-3.516-8.484z"/></g></g></svg>