<svg width="24" height="24" viewBox="0 0 24 24" fill="none" xmlns="http://www.w3.org/2000/svg">
<path d="M19.4297 8.83726H17.9187L18.3739 3.61026C18.3748 3.60079 18.3749 3.59146 18.375 3.58213C18.375 3.58134 18.3751 3.58059 18.3751 3.57979C18.3751 3.57965 18.3751 3.57955 18.3751 3.57941C18.3751 3.43715 18.2892 3.31176 18.1631 3.25724C18.162 3.25677 18.161 3.25621 18.1599 3.25574C18.1521 3.25246 18.144 3.24965 18.1358 3.24693C18.1328 3.24594 18.1299 3.24472 18.1268 3.24379C18.1202 3.24177 18.1133 3.24018 18.1065 3.23854C18.1017 3.23741 18.0971 3.23605 18.0923 3.23512C18.0864 3.23394 18.0802 3.23319 18.0741 3.2323C18.0684 3.23146 18.0627 3.23047 18.057 3.22996C18.056 3.22987 18.0551 3.22968 18.0541 3.22958C18.0479 3.22902 18.0418 3.22912 18.0357 3.22888C18.0316 3.22874 18.0275 3.22827 18.0234 3.22827H18.019C18.0186 3.22827 18.0183 3.22827 18.0179 3.22827H10.8286C10.6346 3.22827 10.4771 3.38577 10.4771 3.57984C10.4771 3.77343 10.6346 3.9314 10.8286 3.9314H17.6402L16.9406 11.9646C16.9405 11.9652 16.9405 11.9659 16.9404 11.9665L16.7638 13.9934H4.54774L4.75207 11.8841H7.07806C7.27226 11.8841 7.42962 11.7267 7.42962 11.5325C7.42962 11.3384 7.27226 11.181 7.07806 11.181H4.82022L5.25166 6.72807H8.95363C9.14783 6.72807 9.30519 6.57066 9.30519 6.3765C9.30519 6.18235 9.14783 6.02494 8.95363 6.02494H5.31982L5.52269 3.9314H9.42238C9.61598 3.9314 9.77394 3.77343 9.77394 3.57984C9.77394 3.38577 9.61598 3.22827 9.42238 3.22827H5.20361C5.20343 3.22827 5.20329 3.22832 5.2031 3.22832C5.03796 3.22827 4.89471 3.34452 4.86007 3.50568C4.85983 3.50685 4.85941 3.50798 4.85918 3.50915C4.85739 3.51791 4.85622 3.52687 4.85505 3.53587C4.85472 3.53873 4.85411 3.54144 4.85383 3.5443C4.85378 3.54487 4.85364 3.54538 4.8536 3.54594L4.61341 6.02494H0.351564C0.15736 6.02494 0 6.18235 0 6.3765C0 6.57066 0.15736 6.72807 0.351564 6.72807H4.54525L4.11381 11.181H2.85948C2.66528 11.181 2.50792 11.3384 2.50792 11.5325C2.50792 11.7267 2.66528 11.8841 2.85948 11.8841H4.0457L3.81077 14.3085C3.81072 14.3089 3.81072 14.3093 3.81067 14.3096L3.44744 18.0586C3.44739 18.0591 3.44734 18.0595 3.44729 18.0599L3.44715 18.0613C3.44669 18.0661 3.44673 18.0709 3.44645 18.0758C3.44612 18.0823 3.44547 18.0886 3.44547 18.0952C3.44547 18.0954 3.44551 18.0957 3.44551 18.096C3.44551 18.1051 3.44617 18.114 3.44683 18.1229C3.44711 18.1258 3.44701 18.1287 3.44734 18.1315C3.44828 18.1406 3.44983 18.1495 3.45147 18.1584C3.45194 18.1611 3.45217 18.1637 3.45269 18.1663C3.45404 18.1731 3.45597 18.1796 3.45775 18.1862C3.45897 18.1908 3.45995 18.1956 3.46136 18.2001C3.46178 18.2014 3.46234 18.2026 3.46272 18.2039C3.47973 18.2562 3.50861 18.3032 3.5463 18.3415C3.547 18.3422 3.54756 18.343 3.54826 18.3437C3.55201 18.3474 3.55609 18.3508 3.56003 18.3544C3.58426 18.3766 3.61164 18.3954 3.64159 18.4102C3.64783 18.4133 3.65397 18.4165 3.66034 18.4192C3.66226 18.4201 3.66433 18.4206 3.6663 18.4214C3.67511 18.4249 3.68397 18.4283 3.69311 18.4311C3.69395 18.4313 3.69475 18.4315 3.69559 18.4318C3.706 18.4349 3.7165 18.4376 3.72723 18.4398C3.72864 18.4401 3.73009 18.4402 3.73145 18.4404C3.74167 18.4424 3.75194 18.444 3.76239 18.445C3.76262 18.445 3.76281 18.4451 3.76305 18.4451C3.77458 18.4463 3.78602 18.4468 3.79736 18.4468C3.7975 18.4468 3.79769 18.4468 3.79787 18.4468H5.36294C5.53577 19.7571 6.65914 20.7719 8.01594 20.7719C9.37265 20.7719 10.496 19.7571 10.6688 18.4468H16.3079C16.4808 19.7571 17.6041 20.7719 18.9608 20.7719C20.3175 20.7719 21.441 19.7571 21.6139 18.4468H23.1793C23.1795 18.4468 23.1798 18.4468 23.1801 18.4468C23.1918 18.4468 23.2033 18.4461 23.2147 18.445C23.2168 18.4448 23.2188 18.4444 23.2208 18.4441C23.23 18.4431 23.2391 18.4418 23.248 18.44C23.2518 18.4393 23.2555 18.4382 23.2593 18.4373C23.2662 18.4358 23.2732 18.4341 23.2799 18.4321C23.2845 18.4307 23.289 18.4291 23.2935 18.4276C23.2992 18.4256 23.305 18.4235 23.3107 18.4212C23.3155 18.4193 23.3202 18.4172 23.3249 18.4151C23.3301 18.4127 23.3352 18.4103 23.3402 18.4077C23.345 18.4052 23.3496 18.4027 23.3542 18.4001C23.359 18.3973 23.3638 18.3944 23.3685 18.3914C23.373 18.3886 23.3774 18.3857 23.3816 18.3827C23.3864 18.3794 23.3909 18.3758 23.3955 18.3723C23.3994 18.3692 23.4033 18.3662 23.407 18.3631C23.4119 18.359 23.4164 18.3547 23.421 18.3503C23.4242 18.3473 23.4275 18.3443 23.4306 18.3411C23.4355 18.3361 23.4401 18.3309 23.4448 18.3256C23.4473 18.3227 23.4498 18.32 23.4522 18.3171C23.4574 18.3107 23.4621 18.3041 23.4667 18.2975C23.4683 18.2952 23.4701 18.2931 23.4717 18.2907C23.4774 18.2821 23.4828 18.2733 23.4877 18.2642C23.4881 18.2637 23.4885 18.2632 23.4887 18.2625C23.494 18.2528 23.4989 18.2428 23.5033 18.2325C23.5045 18.2295 23.5054 18.2265 23.5066 18.2236C23.5095 18.2163 23.5123 18.209 23.5147 18.2015C23.5162 18.1966 23.5173 18.1916 23.5187 18.1867C23.5202 18.1808 23.5219 18.175 23.5232 18.169C23.5244 18.1637 23.5251 18.1583 23.526 18.1529C23.5268 18.1482 23.5278 18.1435 23.5284 18.1387C23.5433 18.0193 23.8186 15.8106 23.9416 14.3824C23.9417 14.381 23.9418 14.3796 23.9419 14.3782C23.9773 13.9665 24 13.6198 24 13.4076C24 10.8875 21.9498 8.83726 19.4297 8.83726ZM17.8574 9.54048H19.2957L19.112 11.6497H17.6737L17.8574 9.54048ZM8.01603 20.0687C6.92773 20.0687 6.04235 19.1834 6.04235 18.0951C6.04235 17.0069 6.92778 16.1215 8.01603 16.1215C9.10429 16.1215 9.98966 17.0069 9.98966 18.0951C9.98966 19.1834 9.10429 20.0687 8.01603 20.0687ZM18.9608 20.0687C17.8726 20.0687 16.9872 19.1834 16.9872 18.0951C16.9872 17.0069 17.8726 16.1215 18.9608 16.1215C20.0491 16.1215 20.9345 17.0069 20.9345 18.0951C20.9345 19.1834 20.0491 20.0687 18.9608 20.0687ZM22.8687 17.7434H21.614C21.4412 16.433 20.3178 15.4181 18.9609 15.4181C17.6042 15.4181 16.4808 16.4331 16.308 17.7434H10.669C10.4962 16.433 9.37283 15.4181 8.01603 15.4181C6.65923 15.4181 5.53577 16.4331 5.36299 17.7434H4.18436L4.47963 14.6963H17.086V14.6965C17.0862 14.6965 17.0863 14.6965 17.0865 14.6965C17.0983 14.6965 17.11 14.6959 17.1215 14.6947C17.1236 14.6945 17.1258 14.694 17.1279 14.6938C17.1371 14.6927 17.1462 14.6914 17.1552 14.6896C17.1591 14.6888 17.1629 14.6877 17.1668 14.6868C17.1738 14.6851 17.1808 14.6834 17.1877 14.6814C17.1924 14.68 17.1968 14.6783 17.2014 14.6767C17.2073 14.6746 17.2132 14.6726 17.2189 14.6703C17.2238 14.6683 17.2286 14.666 17.2333 14.6638C17.2385 14.6614 17.2437 14.659 17.2488 14.6563C17.2535 14.6538 17.2582 14.6511 17.263 14.6484C17.2678 14.6456 17.2726 14.6427 17.2773 14.6397C17.2818 14.6368 17.2861 14.6337 17.2905 14.6306C17.2951 14.6273 17.2996 14.6239 17.3041 14.6204C17.3081 14.6172 17.3121 14.6138 17.3161 14.6104C17.3205 14.6066 17.3249 14.6026 17.3291 14.5986C17.3327 14.5951 17.3362 14.5916 17.3397 14.588C17.3439 14.5836 17.348 14.5791 17.352 14.5744C17.3552 14.5708 17.3583 14.5671 17.3613 14.5633C17.3651 14.5584 17.3689 14.5534 17.3725 14.5483C17.3753 14.5444 17.3779 14.5406 17.3806 14.5366C17.384 14.5313 17.3873 14.5259 17.3904 14.5204C17.3928 14.5162 17.3952 14.5121 17.3974 14.5079C17.4004 14.5024 17.4029 14.4967 17.4056 14.4911C17.4076 14.4865 17.4097 14.4821 17.4116 14.4774C17.4139 14.4718 17.4158 14.4662 17.4178 14.4605C17.4196 14.4555 17.4214 14.4505 17.4229 14.4453C17.4245 14.4399 17.4258 14.4343 17.4272 14.4288C17.4285 14.4232 17.43 14.4177 17.4311 14.412C17.4322 14.4065 17.4328 14.4008 17.4337 14.3952C17.4345 14.3894 17.4355 14.3837 17.4361 14.3778C17.4362 14.3769 17.4364 14.3761 17.4364 14.3753L17.6126 12.3526H19.4296C20.5067 12.3526 20.9925 12.9107 21.5068 13.5016C21.9312 13.9892 22.4049 14.5332 23.2102 14.6659C23.108 15.7473 22.9426 17.1355 22.8687 17.7434ZM23.2703 13.9613C22.7479 13.8548 22.4265 13.4876 22.0371 13.0402C21.5501 12.4807 20.9556 11.798 19.8159 11.6708L19.9978 9.58258C21.8617 9.85825 23.2969 11.4683 23.2969 13.4077C23.2969 13.5395 23.287 13.7309 23.2703 13.9613Z" fill="#F5F5F5"/>
<path d="M8.016 16.8062C7.30523 16.8062 6.72693 17.3844 6.72693 18.0952C6.72693 18.806 7.30523 19.3843 8.016 19.3843C8.72676 19.3843 9.30506 18.806 9.30506 18.0952C9.30506 17.3845 8.72676 16.8062 8.016 16.8062ZM8.016 18.6812C7.69289 18.6812 7.43006 18.4183 7.43006 18.0952C7.43006 17.7721 7.69289 17.5093 8.016 17.5093C8.33911 17.5093 8.60194 17.7721 8.60194 18.0952C8.60194 18.4183 8.33906 18.6812 8.016 18.6812Z" fill="#F5F5F5"/>
<path d="M18.9607 16.8062C18.2499 16.8062 17.6716 17.3844 17.6716 18.0952C17.6716 18.806 18.2499 19.3843 18.9607 19.3843C19.6715 19.3843 20.2498 18.806 20.2498 18.0952C20.2498 17.3845 19.6715 16.8062 18.9607 16.8062ZM18.9607 18.6812C18.6376 18.6812 18.3748 18.4183 18.3748 18.0952C18.3748 17.7721 18.6376 17.5093 18.9607 17.5093C19.2838 17.5093 19.5466 17.7721 19.5466 18.0952C19.5466 18.4183 19.2838 18.6812 18.9607 18.6812Z" fill="#F5F5F5"/>
<path d="M3.32822 8.83716H1.6095C1.41529 8.83716 1.25793 8.99456 1.25793 9.18872C1.25793 9.38288 1.41529 9.54029 1.6095 9.54029H3.32822C3.52243 9.54029 3.67979 9.38288 3.67979 9.18872C3.67979 8.99456 3.52243 8.83716 3.32822 8.83716Z" fill="#F5F5F5"/>
</svg>
