<svg xmlns="http://www.w3.org/2000/svg" width="18" height="24" viewBox="0 0 18 24"><g><g><path fill="#f5f5f5" d="M17.562 12.437A1.447 1.447 0 0 0 16.5 12H5V7c0-1.104.39-2.047 1.172-2.828A3.854 3.854 0 0 1 9 3c1.104 0 2.047.39 2.828 1.172A3.854 3.854 0 0 1 13 7c0 .27.099.505.297.703A.962.962 0 0 0 14 8h1c.27 0 .505-.099.703-.297A.963.963 0 0 0 16 7c0-1.927-.685-3.575-2.054-4.945C12.575.685 10.926 0 9 0 7.073 0 5.424.685 4.055 2.055 2.685 3.425 2 5.073 2 7v5h-.5c-.417 0-.77.146-1.063.437A1.446 1.446 0 0 0 0 13.5v9c0 .417.146.771.437 1.063.292.291.646.437 1.063.437h15c.417 0 .77-.146 1.062-.437.292-.292.438-.646.438-1.063v-9c0-.417-.146-.77-.438-1.063z"/></g></g></svg>