<svg xmlns="http://www.w3.org/2000/svg" width="18" height="20" viewBox="0 0 18 20"><g><g><path fill="#f5f5f5" d="M17.183 10.454v8.182c0 .38-.132.701-.397.966a1.315 1.315 0 0 1-.966.398H2.184c-.38 0-.701-.133-.966-.398a1.316 1.316 0 0 1-.398-.966v-8.181c0-.38.133-.701.398-.966.265-.266.587-.398.966-.398h.454V6.364c0-1.743.625-3.239 1.875-4.489S7.259 0 9.002 0c1.742 0 3.238.625 4.488 1.875 1.25 1.25 1.875 2.746 1.875 4.489V9.09h.454c.38 0 .701.132.966.398.266.265.399.587.398.966zm-4.545-4.09c0-1.004-.355-1.861-1.065-2.571a3.503 3.503 0 0 0-2.571-1.066c-1.004 0-1.861.355-2.571 1.066a3.503 3.503 0 0 0-1.066 2.57v2.728h7.273z"/></g></g></svg>